<?xml version="1.0" standalone="no"?>
<!DOCTYPE svg PUBLIC "-//W3C//DTD SVG 20010904//EN"
 "http://www.w3.org/TR/2001/REC-SVG-20010904/DTD/svg10.dtd">
<svg version="1.0" xmlns="http://www.w3.org/2000/svg"
 width="1280.000000pt" height="1216.000000pt" viewBox="0 0 1280.000000 1216.000000"
 preserveAspectRatio="xMidYMid meet">
<metadata>
Created by potrace 1.15, written by Peter Selinger 2001-2017
</metadata>
<g transform="translate(0.000000,1216.000000) scale(0.100000,-0.100000)"
fill="#FFFFFF" stroke="none">
<path d="M8370 12151 c-14 -4 -43 -18 -65 -29 -64 -34 -2147 -1604 -2170
-1635 -27 -39 -27 -115 0 -154 26 -35 2135 -1726 2190 -1756 53 -28 173 -31
225 -4 45 22 2169 1719 2193 1752 21 29 32 84 23 119 -3 13 -18 39 -33 57 -36
42 -2135 1617 -2182 1636 -42 18 -145 26 -181 14z"/>
<path d="M3687 10669 c-32 -5 -77 -17 -100 -27 -43 -19 -3179 -2366 -3229
-2416 -86 -87 -80 -224 14 -313 78 -74 3177 -2545 3214 -2562 100 -47 238 -47
338 -1 22 11 550 427 1171 925 622 497 1133 904 1137 905 12 0 543 -422 538
-428 -3 -4 -525 -408 -1160 -899 -635 -491 -1184 -921 -1220 -955 -75 -73
-121 -146 -164 -261 l-31 -82 -3 -1608 c-2 -1568 -2 -1610 17 -1652 32 -73 78
-89 161 -57 14 5 449 337 965 737 l940 726 6 -153 c3 -84 11 -173 18 -198 19
-68 79 -177 125 -226 60 -64 2255 -1782 2294 -1795 45 -15 86 3 106 46 14 29
16 167 16 1277 0 817 -4 1258 -11 1288 -15 68 -73 180 -119 233 -23 25 -300
250 -616 498 -317 248 -578 456 -580 463 -2 6 -3 158 -2 339 l3 327 770 -616
c424 -339 790 -626 815 -637 63 -29 178 -29 241 0 25 11 599 463 1297 1021
1335 1068 1292 1031 1292 1119 -1 85 7 79 -812 694 l-767 576 227 174 c124 96
245 193 268 217 47 48 97 143 113 212 15 65 15 2156 0 2199 -19 54 -69 66
-126 31 -32 -19 -1842 -1415 -1937 -1494 -57 -47 -109 -123 -139 -204 -19 -52
-21 -83 -25 -358 l-4 -301 -302 -226 c-167 -125 -306 -227 -309 -227 -4 0 -8
244 -9 543 l-3 542 -36 75 c-48 100 -68 122 -222 243 -1243 977 -1778 1395
-1807 1411 -44 24 -83 16 -107 -21 -16 -24 -18 -57 -18 -315 0 -207 -3 -287
-11 -284 -6 2 -437 324 -958 715 -520 390 -965 721 -988 735 -73 42 -174 59
-271 45z"/>
<path d="M72 7174 c-17 -7 -39 -27 -49 -46 -17 -31 -18 -107 -18 -1648 l0
-1615 23 -69 c40 -119 106 -229 179 -297 50 -48 2827 -2226 2868 -2250 37 -22
101 -27 131 -11 12 6 30 28 40 49 18 37 19 92 19 1648 l0 1610 -28 80 c-35
100 -93 199 -155 264 -38 41 -2698 2136 -2852 2247 -58 42 -116 56 -158 38z"/>
<path d="M12012 4973 c-17 -10 -542 -413 -1166 -895 -852 -660 -1143 -890
-1170 -927 -48 -65 -93 -164 -106 -230 -11 -59 -15 -2465 -4 -2520 4 -17 18
-42 33 -57 21 -21 32 -25 63 -21 20 3 52 15 70 28 65 45 2234 1723 2267 1753
53 49 109 143 136 228 l25 79 0 1245 c0 1051 -2 1250 -14 1279 -24 56 -74 70
-134 38z"/>
</g>
</svg>
